HIERARCHY
ROOT hip
{
  OFFSET 0 0 0
  CHANNELS 6 Xposition Yposition Zposition Zrotation Yrotation Xrotation
  JOINT abdomen
  {
    OFFSET 0 20.6881 -0.73152
    CHANNELS 3 Zrotation Xrotation Yrotation
    JOINT chest
    {
      OFFSET 0 11.7043 -0.48768
      CHANNELS 3 Zrotation Xrotation Yrotation
      JOINT neck
      {
        OFFSET 0 22.1894 -2.19456
        CHANNELS 3 Zrotation Xrotation Yrotation
        JOINT head
        {
          OFFSET -0.24384 7.07133 1.2192
          CHANNELS 3 Zrotation Xrotation Yrotation
          JOINT leftEye
          {
            OFFSET 4.14528 8.04674 8.04672
            CHANNELS 3 Zrotation Xrotation Yrotation
            End Site
            {
              OFFSET 1 0 0
            }
          }
          JOINT rightEye
          {
            OFFSET -3.6576 8.04674 8.04672
            CHANNELS 3 Zrotation Xrotation Yrotation
            End Site
            {
              OFFSET 1 0 0
            }
          }
        }
      }
      JOINT rCollar
      {
        OFFSET -2.68224 19.2634 -4.8768
        CHANNELS 3 Zrotation Xrotation Yrotation
        JOINT rShldr
        {
          OFFSET -8.77824 -1.95073 1.46304
          CHANNELS 3 Zrotation Xrotation Yrotation
          JOINT rForeArm
          {
            OFFSET -28.1742 -1.7115 0.48768
            CHANNELS 3 Zrotation Xrotation Yrotation
            JOINT rHand
            {
              OFFSET -22.5879 0.773209 7.07136
              CHANNELS 3 Zrotation Xrotation Yrotation
              JOINT rThumb1
              {
                OFFSET -1.2192 -0.487915 3.41376
                CHANNELS 3 Zrotation Xrotation Yrotation
                JOINT rThumb2
                {
                  OFFSET -3.37035 -0.52449 3.41376
                  CHANNELS 3 Zrotation Xrotation Yrotation
                  End Site
                  {
                    OFFSET -1.78271 -1.18214 1.43049
                  }
                }
              }
              JOINT rIndex1
              {
                OFFSET -7.75947 0.938293 5.60832
                CHANNELS 3 Zrotation Xrotation Yrotation
                JOINT rIndex2
                {
                  OFFSET -2.54057 -0.884171 1.56538
                  CHANNELS 3 Zrotation Xrotation Yrotation
                  End Site
                  {
                    OFFSET -1.62519 -0.234802 1.16502
                  }
                }
              }
              JOINT rMid1
              {
                OFFSET -8.24714 1.18213 3.41376
                CHANNELS 3 Zrotation Xrotation Yrotation
                JOINT rMid2
                {
                  OFFSET -3.10165 -0.590103 1.0647
                  CHANNELS 3 Zrotation Xrotation Yrotation
                  End Site
                  {
                    OFFSET -2.48547 -0.328903 0.83742
                  }
                }
              }
              JOINT rRing1
              {
                OFFSET -8.82822 0.546677 1.51678
                CHANNELS 3 Zrotation Xrotation Yrotation
                JOINT rRing2
                {
                  OFFSET -2.60934 -0.819778 -0.0198488
                  CHANNELS 3 Zrotation Xrotation Yrotation
                  End Site
                  {
                    OFFSET -2.33842 -0.294052 0.168128
                  }
                }
              }
              JOINT rPinky1
              {
                OFFSET -8.27202 -0.0477905 -0.4584
                CHANNELS 3 Zrotation Xrotation Yrotation
                JOINT rPinky2
                {
                  OFFSET -1.82734 -0.647385 -0.700984
                  CHANNELS 3 Zrotation Xrotation Yrotation
                  End Site
                  {
                    OFFSET -1.69225 -0.51767 -0.607171
                  }
                }
              }
            }
          }
        }
      }
      JOINT lCollar
      {
        OFFSET 2.68224 19.2634 -4.8768
        CHANNELS 3 Zrotation Xrotation Yrotation
        JOINT lShldr
        {
          OFFSET 8.77824 -1.95073 1.46304
          CHANNELS 3 Zrotation Xrotation Yrotation
          JOINT lForeArm
          {
            OFFSET 28.1742 -1.7115 0.48768
            CHANNELS 3 Zrotation Xrotation Yrotation
            JOINT lHand
            {
              OFFSET 22.5879 0.773209 7.07136
              CHANNELS 3 Zrotation Xrotation Yrotation
              JOINT lThumb1
              {
                OFFSET 1.2192 -0.487915 3.41376
                CHANNELS 3 Zrotation Xrotation Yrotation
                JOINT lThumb2
                {
                  OFFSET 3.37035 -0.52449 3.41376
                  CHANNELS 3 Zrotation Xrotation Yrotation
                  End Site
                  {
                    OFFSET 1.78271 -1.18214 1.43049
                  }
                }
              }
              JOINT lIndex1
              {
                OFFSET 7.75947 0.938293 5.60832
                CHANNELS 3 Zrotation Xrotation Yrotation
                JOINT lIndex2
                {
                  OFFSET 2.54057 -0.884171 1.56538
                  CHANNELS 3 Zrotation Xrotation Yrotation
                  End Site
                  {
                    OFFSET 1.62519 -0.234802 1.16502
                  }
                }
              }
              JOINT lMid1
              {
                OFFSET 8.24714 1.18213 3.41376
                CHANNELS 3 Zrotation Xrotation Yrotation
                JOINT lMid2
                {
                  OFFSET 3.10165 -0.590103 1.0647
                  CHANNELS 3 Zrotation Xrotation Yrotation
                  End Site
                  {
                    OFFSET 2.48547 -0.328903 0.83742
                  }
                }
              }
              JOINT lRing1
              {
                OFFSET 8.82822 0.546677 1.51678
                CHANNELS 3 Zrotation Xrotation Yrotation
                JOINT lRing2
                {
                  OFFSET 2.60934 -0.819778 -0.0198488
                  CHANNELS 3 Zrotation Xrotation Yrotation
                  End Site
                  {
                    OFFSET 2.33842 -0.294052 0.168128
                  }
                }
              }
              JOINT lPinky1
              {
                OFFSET 8.27202 -0.0477905 -0.4584
                CHANNELS 3 Zrotation Xrotation Yrotation
                JOINT lPinky2
                {
                  OFFSET 1.82734 -0.647385 -0.700984
                  CHANNELS 3 Zrotation Xrotation Yrotation
                  End Site
                  {
                    OFFSET 1.69225 -0.51767 -0.607171
                  }
                }
              }
            }
          }
        }
      }
    }
  }
  JOINT rButtock
  {
    OFFSET -8.77824 4.35084 1.2192
    CHANNELS 3 Zrotation Xrotation Yrotation
    JOINT rThigh
    {
      OFFSET 0 -1.70687 -2.19456
      CHANNELS 3 Zrotation Xrotation Yrotation
      JOINT rShin
      {
        OFFSET 0 -36.8199 0.73152
        CHANNELS 3 Zrotation Xrotation Yrotation
        JOINT rFoot
        {
          OFFSET 0.73152 -45.1104 -5.12064
          CHANNELS 3 Zrotation Xrotation Yrotation
          End Site
          {
            OFFSET -1.1221 -3.69964 12.103
          }
        }
      }
    }
  }
  JOINT lButtock
  {
    OFFSET 8.77824 4.35084 1.2192
    CHANNELS 3 Zrotation Xrotation Yrotation
    JOINT lThigh
    {
      OFFSET 0 -1.70687 -2.19456
      CHANNELS 3 Zrotation Xrotation Yrotation
      JOINT lShin
      {
        OFFSET 0 -36.8199 0.73152
        CHANNELS 3 Zrotation Xrotation Yrotation
        JOINT lFoot
        {
          OFFSET -0.73152 -45.1104 -5.12064
          CHANNELS 3 Zrotation Xrotation Yrotation
          End Site
          {
            OFFSET 1.1221 -3.69964 12.103
          }
        }
      }
    }
  }
}
MOTION
Frames:	4
Frame Time:	0.00833333
1.52322 82.9268 41.267 -6.3003 -27.7576 11.8793 0.330626 5.49082 -14.727 7.0079 -11.0167 -3.6273 -10.866 11.9851 -14.0676 23.6 -3.89546 -26.6686 -0.0 0.0 0.0 -0.0 0.0 0.0 2.89779e-13 9.9032e-13 -1.39996e-13 92.1628 29.7232 -32.8462 -28.433 -35.7482 76.5895 -0.625311 21.8817 3.23564 -2.34295e-09 1.9718e-09 2.30961e-09 -4.01152e-09 3.37235e-09 4.02542e-09 -2.34294e-09 1.97181e-09 2.3096e-09 7.73091 5.47488 0.417314 -2.34295e-09 1.9718e-09 2.30961e-09 2.90554 0.965183 0.102902 -2.34294e-09 1.9718e-09 2.30961e-09 10.2786 0.731801 0.0259123 -2.34295e-09 1.97181e-09 2.30962e-09 2.22167 -0.733487 -0.20892 2.89629e-13 9.90316e-13 -1.40093e-13 -18.2484 83.3109 -56.876 27.1689 -26.922 -62.3705 0.165361 -11.4956 1.63796 -2.33029e-09 -4.05596e-11 4.42529e-10 -4.02686e-09 -6.07341e-11 7.46094e-10 -2.33029e-09 -4.05599e-11 4.42533e-10 -7.73091 5.47488 -0.417314 -2.33028e-09 -4.05529e-11 4.42517e-10 -2.90554 0.965183 -0.102902 -2.33029e-09 -4.05601e-11 4.42535e-10 -10.2786 0.731801 -0.0259123 -2.33028e-09 -4.0557e-11 4.42541e-10 -2.22167 -0.733487 0.20892 -2.03217e-16 0.0 -3.88251e-19 -1.26171 -17.6941 23.6347 -0.0264344 4.91336 0.670816 -2.15895 -2.54158 -9.75205 2.03217e-16 0.0 3.88251e-19 -8.32641 -8.06069 -39.1275 0.0789712 14.9039 0.456041 32.4307 -25.3002 62.6321
1.70236 82.9645 41.1268 -6.3649 -28.3027 12.1789 0.759652 5.87218 -15.4153 7.31918 -11.1 -3.77609 -10.6994 11.7028 -13.7868 22.7576 -3.82728 -26.0902 -0.0 0.0 0.0 -0.0 0.0 0.0 2.80228e-13 9.67586e-13 -5.397e-14 91.5827 29.2633 -32.1033 -28.4331 -35.7843 76.6486 -0.600565 21.4647 3.16781 -2.03717e-09 1.58631e-09 2.00011e-09 -3.48878e-09 2.71539e-09 3.48558e-09 -2.03716e-09 1.58632e-09 2.0001e-09 7.73091 5.47488 0.417314 -2.03717e-09 1.58631e-09 2.00011e-09 2.90554 0.965183 0.102902 -2.03716e-09 1.58631e-09 2.00012e-09 10.2786 0.731801 0.0259123 -2.03717e-09 1.58632e-09 2.00012e-09 2.22167 -0.733487 -0.20892 2.80065e-13 9.67581e-13 -5.40694e-14 1.86499 81.6395 -76.6249 27.1088 -26.7082 -62.0092 0.167929 -11.5999 1.65313 -2.08048e-09 -1.42521e-10 4.27422e-10 -3.59608e-09 -2.37177e-10 7.21968e-10 -2.08048e-09 -1.4252e-10 4.27425e-10 -7.73091 5.47488 -0.417314 -2.08046e-09 -1.42512e-10 4.27406e-10 -2.90554 0.965183 -0.102902 -2.08048e-09 -1.4252e-10 4.27427e-10 -10.2786 0.731801 -0.0259123 -2.08047e-09 -1.42518e-10 4.27432e-10 -2.22167 -0.733487 0.20892 -2.03217e-16 0.0 -3.88251e-19 -1.52591 -17.9109 23.574 -0.0232687 4.65099 0.677537 -2.2622 -2.14718 -10.728 2.03217e-16 0.0 3.88251e-19 -8.74008 -8.27433 -39.7952 0.0893642 15.0561 0.54063 34.0566 -25.7595 63.8333
1.87364 82.9784 40.9951 -6.3655 -28.7415 12.4315 1.11391 6.36488 -16.1171 7.68821 -11.1307 -3.9247 -10.5502 11.3658 -13.5003 22.0597 -3.87427 -25.4673 -0.0 0.0 0.0 -0.0 0.0 0.0 2.11845e-13 7.16283e-13 -4.65009e-15 90.859 28.933 -31.2384 -28.4315 -35.8395 76.7481 -0.589456 21.2632 3.13541 -1.39073e-09 1.17763e-09 1.2546e-09 -2.3833e-09 2.01947e-09 2.18832e-09 -1.39072e-09 1.17764e-09 1.25459e-09 7.73091 5.47488 0.417314 -1.39073e-09 1.17764e-09 1.2546e-09 2.90554 0.965183 0.102902 -1.39072e-09 1.17763e-09 1.2546e-09 10.2786 0.731801 0.0259123 -1.39074e-09 1.17764e-09 1.25461e-09 2.22167 -0.733487 -0.20892 2.11694e-13 7.16277e-13 -4.77277e-15 12.9243 79.2151 -87.3869 27.0199 -26.4029 -61.5241 0.176247 -11.8006 1.68326 -1.37394e-09 3.12439e-11 2.1096e-10 -2.37241e-09 6.14897e-11 3.53741e-10 -1.37394e-09 3.12467e-11 2.10963e-10 -7.73091 5.47488 -0.417314 -1.37393e-09 3.12537e-11 2.10946e-10 -2.90554 0.965183 -0.102902 -1.37394e-09 3.12465e-11 2.10963e-10 -10.2786 0.731801 -0.0259123 -1.37393e-09 3.12477e-11 2.10965e-10 -2.22167 -0.733487 0.20892 -2.03217e-16 0.0 -3.88251e-19 -1.87873 -18.0139 23.6057 -0.0206717 4.36975 0.666119 -2.28478 -1.39184 -11.7304 2.03217e-16 0.0 3.88251e-19 -9.07035 -8.53379 -39.9855 0.0949491 15.1379 0.576271 34.8165 -25.9416 64.402
2.03978 82.9835 40.8834 -6.2403 -29.17 12.5926 1.45372 6.92317 -16.8507 8.10797 -11.1345 -4.07731 -10.4139 10.9891 -13.2028 21.4407 -4.00491 -24.797 -0.0 0.0 0.0 -0.0 0.0 0.0 9.7472e-14 2.91437e-13 4.00458e-14 90.0012 28.6864 -30.2846 -28.4288 -35.8982 76.8582 -0.587792 21.2266 3.12966 -4.15125e-10 6.36844e-10 1.10266e-10 -7.14999e-10 1.09947e-09 1.9759e-10 -4.15115e-10 6.36849e-10 1.10262e-10 7.73091 5.47488 0.417314 -4.15128e-10 6.36847e-10 1.10269e-10 2.90554 0.965183 0.102902 -4.15118e-10 6.36843e-10 1.10273e-10 10.2786 0.731801 0.0259123 -4.15132e-10 6.3685e-10 1.10283e-10 2.22167 -0.733487 -0.20892 9.73466e-14 2.91429e-13 3.98843e-14 19.0561 76.4164 -93.2822 26.8993 -26.0067 -60.9265 0.187895 -12.0446 1.72033 -2.57886e-10 3.27462e-10 -1.69767e-10 -4.3867e-10 5.70581e-10 -2.95142e-10 -2.57886e-10 3.27469e-10 -1.69763e-10 -7.73091 5.47488 -0.417314 -2.57876e-10 3.27473e-10 -1.69776e-10 -2.90554 0.965183 -0.102902 -2.57891e-10 3.27468e-10 -1.69767e-10 -10.2786 0.731801 -0.0259123 -2.57883e-10 3.27467e-10 -1.69769e-10 -2.22167 -0.733487 0.20892 -2.03217e-16 0.0 -3.88251e-19 -2.28155 -18.0074 23.6903 -0.0182461 4.04562 0.640815 -2.23518 -0.368125 -12.8351 2.03217e-16 0.0 3.88251e-19 -9.30088 -8.8461 -39.8279 0.0976525 15.1729 0.578284 34.8869 -25.9634 64.4495
